<svg xmlns="http://www.w3.org/2000/svg" width="1943" height="193" viewBox="0 0 1943 193"><title>diamant</title><g id="Layer_3" data-name="Layer 3"><text transform="translate(63.94 104.38)" font-size="100" font-family="Raleway-Regular, Raleway">MA<tspan x="155.3" y="0" letter-spacing="-0.02em">R</tspan><tspan x="218.3" y="0">YL</tspan><tspan x="341.7" y="0" xml:space="preserve" font-family="Raleway-Bold, Raleway" font-weight="700">   </tspan><tspan x="413.69" y="0">U</tspan><tspan font-size="60"><tspan x="93.02" y="72">JEWELLE</tspan><tspan x="364.22" y="72" letter-spacing="-0.02em">R</tspan><tspan x="402.02" y="72" letter-spacing="-0.03em">Y</tspan></tspan></text><g opacity="0.42"><ellipse cx="446.5" cy="69.06" rx="59.5" ry="56.94" fill="#f4aab4"/></g><polygon points="436.05 45.57 415.25 37.56 423.75 16.8 444.54 24.81 436.05 45.57" fill="#f7c1bd" opacity="0.4"/><polygon points="446.92 113.11 455.5 87.83 479.56 95.53 470.98 120.8 446.92 113.11" fill="#f7c1bd" opacity="0.4"/><polygon points="477.38 39.13 451.89 46.85 444.85 24.95 470.34 17.24 477.38 39.13" fill="#f7c1bd" opacity="0.4"/><polygon points="475.93 102.81 464.31 76.65 489.43 66.16 501.04 92.32 475.93 102.81" fill="#f7c1bd" opacity="0.4"/><polygon points="500.54 47.3 490.88 68.39 467.48 58.3 477.14 37.2 500.54 47.3" fill="#f7c1bd" opacity="0.4"/><polygon points="416.99 102.91 388.65 84.3 403.61 62.85 431.94 81.47 416.99 102.91" fill="#f7c1bd" opacity="0.4"/><polygon points="415.19 101.89 434.36 91.15 446.5 111.56 427.33 122.31 415.19 101.89" fill="#f7c1bd" opacity="0.41"/><polygon points="393.52 44.14 414.65 37.74 421.89 60.25 400.75 66.64 393.52 44.14" fill="#f7c1bd" opacity="0.4"/><g opacity="0.71"><polygon points="492.66 70.76 448.25 113.86 400.34 67.36 444.75 24.26 492.66 70.76" fill="#f4c2db"/></g><g opacity="0.7"><rect x="415.1" y="37.79" width="62.81" height="65.76" fill="#f7d5e0"/></g></g><g id="Layer_4" data-name="Layer 4"><text transform="translate(709.94 104.38)" font-size="100" font-family="Raleway-Regular, Raleway">MA<tspan x="155.3" y="0" letter-spacing="-0.02em">R</tspan><tspan x="218.3" y="0">YL</tspan><tspan x="341.7" y="0" xml:space="preserve" font-family="Raleway-Bold, Raleway" font-weight="700">   </tspan><tspan x="413.69" y="0">U</tspan><tspan font-size="60"><tspan x="93.02" y="72">JEWELLE</tspan><tspan x="364.22" y="72" letter-spacing="-0.02em">R</tspan><tspan x="402.02" y="72" letter-spacing="-0.03em">Y</tspan></tspan></text><g opacity="0.6"><ellipse cx="1090.62" cy="69.42" rx="59.5" ry="58" fill="#f3bfa3"/></g><polygon points="1082.17 45.49 1061.38 37.33 1069.88 16.19 1090.66 24.35 1082.17 45.49" fill="#efc6bc" opacity="0.36"/><polygon points="1093.04 114.29 1101.62 88.54 1125.68 96.38 1117.1 122.12 1093.04 114.29" fill="#f1a5ad" opacity="0.39"/><polygon points="1123.51 38.94 1098.01 46.8 1090.97 24.49 1116.47 16.63 1123.51 38.94" fill="#f1a5ad" opacity="0.39"/><polygon points="1122.05 103.8 1110.44 77.16 1135.56 66.46 1147.17 93.11 1122.05 103.8" fill="#f4b396" opacity="0.36"/><polygon points="1146.66 47.25 1137 68.74 1113.61 58.46 1123.27 36.97 1146.66 47.25" fill="#efc6bc" opacity="0.4"/><polygon points="1063.12 103.9 1034.78 84.94 1049.73 63.1 1078.07 82.06 1063.12 103.9" fill="#f1a5ad" opacity="0.39"/><polygon points="1061.31 102.86 1080.48 91.92 1092.62 112.72 1073.45 123.66 1061.31 102.86" fill="#efc6bc" opacity="0.36"/><polygon points="1039.65 44.04 1060.78 37.52 1068.01 60.44 1046.88 66.96 1039.65 44.04" fill="#f4b396" opacity="0.4"/><g opacity="0.71"><polygon points="1138.79 71.15 1094.38 115.05 1046.46 67.69 1090.87 23.79 1138.79 71.15" fill="#f6c2a2"/></g><g opacity="0.5"><rect x="1061.22" y="37.56" width="62.81" height="66.99" fill="#f2bdb2"/></g></g><g id="Layer_5" data-name="Layer 5"><text transform="translate(1357.94 104.38)" font-size="100" font-family="Raleway-Regular, Raleway">MA<tspan x="155.3" y="0" letter-spacing="-0.02em">R</tspan><tspan x="218.3" y="0">YL</tspan><tspan x="341.7" y="0" xml:space="preserve" font-family="Raleway-Bold, Raleway" font-weight="700">   </tspan><tspan x="413.69" y="0">U</tspan><tspan font-size="60"><tspan x="93.02" y="72">JEWELLE</tspan><tspan x="364.22" y="72" letter-spacing="-0.02em">R</tspan><tspan x="402.02" y="72" letter-spacing="-0.03em">Y</tspan></tspan></text><g opacity="0.6"><ellipse cx="1737.58" cy="68.79" rx="59.5" ry="58" fill="#f2998a"/></g><polygon points="1727.13 44.86 1706.34 36.7 1714.83 15.55 1735.62 23.71 1727.13 44.86" fill="#f08eb9" opacity="0.36"/><polygon points="1738 113.65 1746.58 87.91 1770.64 95.74 1762.06 121.49 1738 113.65" fill="#f1969b" opacity="0.39"/><polygon points="1768.46 38.3 1742.97 46.16 1735.93 23.86 1761.43 15.99 1768.46 38.3" fill="#f1969b" opacity="0.39"/><polygon points="1767.01 103.17 1755.4 76.52 1780.51 65.83 1792.12 92.48 1767.01 103.17" fill="#f2997c" opacity="0.36"/><polygon points="1791.62 46.62 1781.96 68.1 1758.56 57.82 1768.22 36.34 1791.62 46.62" fill="#f08eb9" opacity="0.4"/><polygon points="1708.07 103.27 1679.74 84.31 1694.69 62.46 1723.03 81.42 1708.07 103.27" fill="#f1969b" opacity="0.39"/><polygon points="1706.27 102.23 1725.44 91.29 1737.58 112.08 1718.41 123.02 1706.27 102.23" fill="#f08eb9" opacity="0.36"/><polygon points="1684.61 43.4 1705.73 36.89 1712.97 59.81 1691.84 66.33 1684.61 43.4" fill="#f2997c" opacity="0.4"/><g opacity="0.71"><polygon points="1783.75 70.52 1739.34 114.42 1691.42 67.05 1735.83 23.15 1783.75 70.52" fill="#f6b5a6"/></g><g opacity="0.5"><rect x="1706.18" y="36.93" width="62.81" height="66.99" fill="#f29aa5"/></g></g></svg>
