<svg xmlns="http://www.w3.org/2000/svg" width="1943" height="193" viewBox="0 0 1943 193"><title>logomj</title><g id="Layer_3" data-name="Layer 3"><text transform="translate(61.94 98.38)" font-size="100" font-family="Raleway-Regular, Raleway">MA<tspan x="155.3" y="0" letter-spacing="-0.02em">R</tspan><tspan x="218.3" y="0">YL</tspan><tspan x="341.7" y="0" xml:space="preserve" font-family="Raleway-Bold, Raleway" font-weight="700">   </tspan><tspan x="413.69" y="0">U</tspan><tspan font-size="60"><tspan x="93.02" y="72">JEWELLE</tspan><tspan x="364.22" y="72" letter-spacing="-0.02em">R</tspan><tspan x="402.02" y="72" letter-spacing="-0.03em">Y</tspan></tspan></text><g opacity="0.42"><ellipse cx="441.5" cy="62.06" rx="59.5" ry="58" fill="#f4aab4"/></g><polygon points="432.05 38.57 411.25 30.56 419.75 9.8 440.54 17.81 432.05 38.57" fill="#f7c1bd" opacity="0.4"/><polygon points="442.92 106.11 451.5 80.83 475.56 88.53 466.98 113.8 442.92 106.11" fill="#f7c1bd" opacity="0.4"/><polygon points="473.38 32.13 447.89 39.85 440.85 17.95 466.34 10.24 473.38 32.13" fill="#f7c1bd" opacity="0.4"/><polygon points="472 95.84 460.28 69.73 485.35 59.13 497.07 85.24 472 95.84" fill="#f7c1bd" opacity="0.4"/><polygon points="496.54 40.3 486.88 61.39 463.48 51.3 473.14 30.2 496.54 40.3" fill="#f7c1bd" opacity="0.4"/><polygon points="412.99 95.91 384.65 77.3 399.61 55.85 427.94 74.47 412.99 95.91" fill="#f7c1bd" opacity="0.4"/><polygon points="411.19 94.89 430.36 84.15 442.5 104.56 423.33 115.31 411.19 94.89" fill="#f7c1bd" opacity="0.41"/><polygon points="389.52 37.14 410.65 30.75 417.89 53.25 396.75 59.65 389.52 37.14" fill="#f7c1bd" opacity="0.4"/><g opacity="0.71"><polygon points="488.66 63.76 444.25 106.86 396.34 60.36 440.75 17.26 488.66 63.76" fill="#f4c2db"/></g><g opacity="0.7"><rect x="411.1" y="30.79" width="62.81" height="65.76" fill="#f7d5e0"/></g></g><g id="Layer_4" data-name="Layer 4"><text transform="translate(709.94 98.38)" font-size="100" font-family="Raleway-Regular, Raleway">MA<tspan x="155.3" y="0" letter-spacing="-0.02em">R</tspan><tspan x="218.3" y="0">YL</tspan><tspan x="341.7" y="0" xml:space="preserve" font-family="Raleway-Bold, Raleway" font-weight="700">   </tspan><tspan x="413.69" y="0">U</tspan><tspan font-size="60"><tspan x="93.02" y="72">JEWELLE</tspan><tspan x="364.22" y="72" letter-spacing="-0.02em">R</tspan><tspan x="402.02" y="72" letter-spacing="-0.03em">Y</tspan></tspan></text><g opacity="0.6"><ellipse cx="1089.62" cy="62.42" rx="59.5" ry="58" fill="#f3bfa3"/></g><polygon points="1080.17 37.49 1059.38 29.33 1067.88 8.19 1088.66 16.35 1080.17 37.49" fill="#efc6bc" opacity="0.36"/><polygon points="1091.04 106.29 1099.62 80.54 1123.68 88.38 1115.1 114.12 1091.04 106.29" fill="#f1a5ad" opacity="0.39"/><polygon points="1121.51 30.94 1096.01 38.8 1088.97 16.49 1114.47 8.63 1121.51 30.94" fill="#f1a5ad" opacity="0.39"/><polygon points="1120.05 95.8 1108.44 69.16 1133.56 58.46 1145.17 85.11 1120.05 95.8" fill="#f4b396" opacity="0.36"/><polygon points="1144.59 39.04 1135.2 60.65 1111.68 50.67 1121.07 29.06 1144.59 39.04" fill="#efc6bc" opacity="0.4"/><polygon points="1061.12 95.9 1032.78 76.94 1047.73 55.1 1076.07 74.06 1061.12 95.9" fill="#f1a5ad" opacity="0.39"/><polygon points="1059.31 94.86 1078.48 83.92 1090.62 104.72 1071.45 115.66 1059.31 94.86" fill="#efc6bc" opacity="0.36"/><polygon points="1037.65 36.04 1058.78 29.52 1066.01 52.44 1044.88 58.96 1037.65 36.04" fill="#f4b396" opacity="0.4"/><g opacity="0.71"><polygon points="1136.79 63.15 1092.38 107.05 1044.46 59.69 1088.87 15.79 1136.79 63.15" fill="#f6c2a2"/></g><g opacity="0.5"><rect x="1059.22" y="29.56" width="62.81" height="66.99" fill="#f2bdb2"/></g></g><g id="Layer_5" data-name="Layer 5"><text transform="translate(1356.93 98.23)" font-size="100" font-family="Raleway-Regular, Raleway">MA<tspan x="155.3" y="0" letter-spacing="-0.02em">R</tspan><tspan x="218.3" y="0">YL</tspan><tspan x="341.7" y="0" xml:space="preserve" font-family="Raleway-Bold, Raleway" font-weight="700">   </tspan><tspan x="413.69" y="0">U</tspan><tspan font-size="60"><tspan x="93.05" y="72">JEWELLE</tspan><tspan x="364.25" y="72" letter-spacing="-0.02em">R</tspan><tspan x="402.05" y="72" letter-spacing="-0.03em">Y</tspan></tspan></text><g opacity="0.6"><ellipse cx="1735.58" cy="61.79" rx="59.5" ry="58" fill="#f2998a"/></g><polygon points="1726.13 37.86 1705.34 29.7 1713.83 8.55 1734.62 16.71 1726.13 37.86" fill="#f08eb9" opacity="0.36"/><polygon points="1737 106.65 1745.58 80.91 1769.64 88.74 1761.06 114.49 1737 106.65" fill="#f1969b" opacity="0.39"/><polygon points="1767.46 31.3 1741.97 39.16 1734.93 16.86 1760.43 8.99 1767.46 31.3" fill="#f1969b" opacity="0.39"/><polygon points="1766.01 96.17 1754.4 69.52 1779.51 58.83 1791.12 85.48 1766.01 96.17" fill="#f2997c" opacity="0.36"/><polygon points="1790.62 39.62 1780.96 61.1 1757.56 50.82 1767.22 29.34 1790.62 39.62" fill="#f08eb9" opacity="0.4"/><polygon points="1707.07 96.27 1678.74 77.31 1693.69 55.46 1722.03 74.42 1707.07 96.27" fill="#f1969b" opacity="0.39"/><polygon points="1705.27 95.23 1724.44 84.29 1736.58 105.08 1717.41 116.02 1705.27 95.23" fill="#f08eb9" opacity="0.36"/><polygon points="1683.61 36.4 1704.73 29.89 1711.97 52.81 1690.84 59.33 1683.61 36.4" fill="#f2997c" opacity="0.4"/><g opacity="0.71"><polygon points="1782.75 63.52 1738.34 107.42 1690.42 60.05 1734.83 16.15 1782.75 63.52" fill="#f6b5a6"/></g><g opacity="0.5"><rect x="1705.18" y="29.93" width="62.81" height="66.99" fill="#f29aa5"/></g></g></svg>
