<svg xmlns="http://www.w3.org/2000/svg" width="1943" height="193" viewBox="0 0 1943 193"><title>logomjewe</title><g id="Layer_3" data-name="Layer 3"><text transform="translate(61.94 99.38)" font-size="100" font-family="Raleway-Regular, Raleway">MA<tspan x="155.3" y="0" letter-spacing="-0.02em">R</tspan><tspan x="218.3" y="0">YL</tspan><tspan x="341.7" y="0" xml:space="preserve" font-family="Raleway-Bold, Raleway" font-weight="700">   </tspan><tspan x="413.69" y="0">U</tspan><tspan font-size="60"><tspan x="93.02" y="72">JEWELLE</tspan><tspan x="364.22" y="72" letter-spacing="-0.02em">R</tspan><tspan x="402.02" y="72" letter-spacing="-0.03em">Y</tspan></tspan></text><g opacity="0.42"><ellipse cx="441.5" cy="63.06" rx="59.5" ry="58" fill="#f4aab4"/></g><polygon points="434.05 40.57 413.25 32.56 421.75 11.8 442.54 19.81 434.05 40.57" fill="#f7c1bd" opacity="0.4"/><polygon points="444.92 108.11 453.5 82.83 477.56 90.53 468.98 115.8 444.92 108.11" fill="#f7c1bd" opacity="0.4"/><polygon points="475.38 34.13 449.89 41.85 442.85 19.95 468.34 12.24 475.38 34.13" fill="#f7c1bd" opacity="0.4"/><polygon points="474 97.84 462.28 71.73 487.35 61.13 499.07 87.24 474 97.84" fill="#f7c1bd" opacity="0.4"/><polygon points="498.54 42.3 488.88 63.39 465.48 53.3 475.14 32.2 498.54 42.3" fill="#f7c1bd" opacity="0.4"/><polygon points="414.99 97.91 386.65 79.3 401.61 57.85 429.94 76.47 414.99 97.91" fill="#f7c1bd" opacity="0.4"/><polygon points="413.19 96.89 432.36 86.15 444.5 106.56 425.33 117.31 413.19 96.89" fill="#f7c1bd" opacity="0.41"/><polygon points="391.52 39.14 412.65 32.74 419.89 55.25 398.75 61.65 391.52 39.14" fill="#f7c1bd" opacity="0.4"/><g opacity="0.71"><polygon points="490.66 65.76 446.25 108.86 398.34 62.36 442.75 19.26 490.66 65.76" fill="#f4c2db"/></g><g opacity="0.7"><rect x="413.1" y="32.79" width="62.81" height="65.76" fill="#f7d5e0"/></g></g><g id="Layer_4" data-name="Layer 4"><text transform="translate(709.94 99.38)" font-size="100" font-family="Raleway-Regular, Raleway">MA<tspan x="155.3" y="0" letter-spacing="-0.02em">R</tspan><tspan x="218.3" y="0">YL</tspan><tspan x="341.7" y="0" xml:space="preserve" font-family="Raleway-Bold, Raleway" font-weight="700">   </tspan><tspan x="413.69" y="0">U</tspan><tspan font-size="60"><tspan x="93.02" y="72">JEWELLE</tspan><tspan x="364.22" y="72" letter-spacing="-0.02em">R</tspan><tspan x="402.02" y="72" letter-spacing="-0.03em">Y</tspan></tspan></text><g opacity="0.6"><ellipse cx="1089.62" cy="63.42" rx="59.5" ry="58" fill="#f3bfa3"/></g><polygon points="1082.17 39.49 1061.38 31.33 1069.88 10.19 1090.66 18.35 1082.17 39.49" fill="#efc6bc" opacity="0.36"/><polygon points="1093.04 108.29 1101.62 82.54 1125.68 90.38 1117.1 116.12 1093.04 108.29" fill="#f1a5ad" opacity="0.39"/><polygon points="1123.51 32.94 1098.01 40.8 1090.97 18.49 1116.47 10.63 1123.51 32.94" fill="#f1a5ad" opacity="0.39"/><polygon points="1122.05 97.8 1110.44 71.16 1135.56 60.46 1147.17 87.11 1122.05 97.8" fill="#f4b396" opacity="0.36"/><polygon points="1146.59 41.04 1137.2 62.65 1113.68 52.67 1123.07 31.06 1146.59 41.04" fill="#efc6bc" opacity="0.4"/><polygon points="1063.12 97.9 1034.78 78.94 1049.73 57.1 1078.07 76.06 1063.12 97.9" fill="#f1a5ad" opacity="0.39"/><polygon points="1061.31 96.86 1080.48 85.92 1092.62 106.72 1073.45 117.66 1061.31 96.86" fill="#efc6bc" opacity="0.36"/><polygon points="1039.65 38.04 1060.78 31.52 1068.01 54.44 1046.88 60.96 1039.65 38.04" fill="#f4b396" opacity="0.4"/><g opacity="0.71"><polygon points="1138.79 65.15 1094.38 109.05 1046.46 61.69 1090.87 17.79 1138.79 65.15" fill="#f6c2a2"/></g><g opacity="0.5"><rect x="1061.22" y="31.56" width="62.81" height="66.99" fill="#f2bdb2"/></g></g><g id="Layer_5" data-name="Layer 5"><text transform="translate(1356.93 99.23)" font-size="100" font-family="Raleway-Regular, Raleway">MA<tspan x="155.3" y="0" letter-spacing="-0.02em">R</tspan><tspan x="218.3" y="0">YL</tspan><tspan x="341.7" y="0" xml:space="preserve" font-family="Raleway-Bold, Raleway" font-weight="700">   </tspan><tspan x="413.69" y="0">U</tspan><tspan font-size="60"><tspan x="93.05" y="72">JEWELLE</tspan><tspan x="364.25" y="72" letter-spacing="-0.02em">R</tspan><tspan x="402.05" y="72" letter-spacing="-0.03em">Y</tspan></tspan></text><g opacity="0.6"><ellipse cx="1735.58" cy="62.79" rx="59.5" ry="58" fill="#f2998a"/></g><polygon points="1726.13 38.86 1705.34 30.7 1713.83 9.55 1734.62 17.71 1726.13 38.86" fill="#f08eb9" opacity="0.36"/><polygon points="1737 107.65 1745.58 81.91 1769.64 89.74 1761.06 115.49 1737 107.65" fill="#f1969b" opacity="0.39"/><polygon points="1767.46 32.3 1741.97 40.16 1734.93 17.86 1760.43 9.99 1767.46 32.3" fill="#f1969b" opacity="0.39"/><polygon points="1766.01 97.17 1754.4 70.52 1779.51 59.83 1791.12 86.48 1766.01 97.17" fill="#f2997c" opacity="0.36"/><polygon points="1790.62 40.62 1780.96 62.1 1757.56 51.82 1767.22 30.34 1790.62 40.62" fill="#f08eb9" opacity="0.4"/><polygon points="1707.07 97.27 1678.74 78.31 1693.69 56.46 1722.03 75.42 1707.07 97.27" fill="#f1969b" opacity="0.39"/><polygon points="1705.27 96.23 1724.44 85.29 1736.58 106.08 1717.41 117.02 1705.27 96.23" fill="#f08eb9" opacity="0.36"/><polygon points="1683.61 37.4 1704.73 30.89 1711.97 53.81 1690.84 60.33 1683.61 37.4" fill="#f2997c" opacity="0.4"/><g opacity="0.71"><polygon points="1782.75 64.52 1738.34 108.42 1690.42 61.05 1734.83 17.15 1782.75 64.52" fill="#f6b5a6"/></g><g opacity="0.5"><rect x="1705.18" y="30.93" width="62.81" height="66.99" fill="#f29aa5"/></g></g></svg>
