<svg xmlns="http://www.w3.org/2000/svg" width="1890" height="280" viewBox="0 0 1890 280"><title>logomarylou</title><g id="Layer_3" data-name="Layer 3"><text transform="translate(59.94 141.38)" font-size="100" font-family="Raleway-Regular, Raleway">MA<tspan x="155.3" y="0" letter-spacing="-0.02em">R</tspan><tspan x="218.3" y="0">YL</tspan><tspan x="341.7" y="0" xml:space="preserve" font-family="Raleway-Bold, Raleway" font-weight="700">   </tspan><tspan x="413.69" y="0">U</tspan><tspan font-size="60"><tspan x="93.02" y="72">JEWELLE</tspan><tspan x="364.22" y="72" letter-spacing="-0.02em">R</tspan><tspan x="402.02" y="72" letter-spacing="-0.03em">Y</tspan></tspan></text><g opacity="0.42"><ellipse cx="442.5" cy="106.06" rx="59.5" ry="56.94" fill="#f4aab4"/></g><polygon points="432.05 82.57 411.25 74.56 419.75 53.8 440.54 61.81 432.05 82.57" fill="#f7c1bd" opacity="0.4"/><polygon points="442.92 150.11 451.5 124.83 475.56 132.53 466.98 157.8 442.92 150.11" fill="#f7c1bd" opacity="0.4"/><polygon points="473.38 76.13 447.89 83.85 440.85 61.95 466.34 54.24 473.38 76.13" fill="#f7c1bd" opacity="0.4"/><polygon points="471.93 139.81 460.31 113.65 485.43 103.16 497.04 129.32 471.93 139.81" fill="#f7c1bd" opacity="0.4"/><polygon points="496.54 84.3 486.88 105.39 463.48 95.3 473.14 74.2 496.54 84.3" fill="#f7c1bd" opacity="0.4"/><polygon points="412.99 139.91 384.65 121.3 399.61 99.85 427.94 118.47 412.99 139.91" fill="#f7c1bd" opacity="0.4"/><polygon points="411.19 138.89 430.36 128.15 442.5 148.56 423.33 159.31 411.19 138.89" fill="#f7c1bd" opacity="0.41"/><polygon points="389.52 81.14 410.65 74.75 417.89 97.25 396.75 103.64 389.52 81.14" fill="#f7c1bd" opacity="0.4"/><g opacity="0.71"><polygon points="488.66 107.76 444.25 150.86 396.34 104.36 440.75 61.26 488.66 107.76" fill="#f4c2db"/></g><g opacity="0.7"><rect x="411.1" y="74.79" width="62.81" height="65.76" fill="#f7d5e0"/></g></g><g id="Layer_4" data-name="Layer 4"><text transform="translate(689.94 141.38)" font-size="100" font-family="Raleway-Regular, Raleway">MA<tspan x="155.3" y="0" letter-spacing="-0.02em">R</tspan><tspan x="218.3" y="0">YL</tspan><tspan x="341.7" y="0" xml:space="preserve" font-family="Raleway-Bold, Raleway" font-weight="700">   </tspan><tspan x="413.69" y="0">U</tspan><tspan font-size="60"><tspan x="93.02" y="72">JEWELLE</tspan><tspan x="364.22" y="72" letter-spacing="-0.02em">R</tspan><tspan x="402.02" y="72" letter-spacing="-0.03em">Y</tspan></tspan></text><g opacity="0.6"><ellipse cx="1070.62" cy="106.42" rx="59.5" ry="58" fill="#f3bfa3"/></g><polygon points="1062.17 82.5 1041.38 74.33 1049.88 53.19 1070.66 61.35 1062.17 82.5" fill="#efc6bc" opacity="0.36"/><polygon points="1073.04 151.29 1081.62 125.54 1105.68 133.38 1097.1 159.12 1073.04 151.29" fill="#f1a5ad" opacity="0.39"/><polygon points="1103.51 75.94 1078.01 83.8 1070.97 61.49 1096.47 53.63 1103.51 75.94" fill="#f1a5ad" opacity="0.39"/><polygon points="1102.05 140.8 1090.44 114.16 1115.56 103.46 1127.17 130.11 1102.05 140.8" fill="#f4b396" opacity="0.36"/><polygon points="1126.66 84.25 1117 105.74 1093.61 95.46 1103.27 73.97 1126.66 84.25" fill="#efc6bc" opacity="0.4"/><polygon points="1043.12 140.9 1014.78 121.94 1029.73 100.1 1058.07 119.06 1043.12 140.9" fill="#f1a5ad" opacity="0.39"/><polygon points="1041.31 139.86 1060.48 128.92 1072.62 149.72 1053.45 160.66 1041.31 139.86" fill="#efc6bc" opacity="0.36"/><polygon points="1019.65 81.04 1040.78 74.52 1048.01 97.44 1026.88 103.96 1019.65 81.04" fill="#f4b396" opacity="0.4"/><g opacity="0.71"><polygon points="1118.79 108.15 1074.38 152.05 1026.46 104.69 1070.87 60.79 1118.79 108.15" fill="#f6c2a2"/></g><g opacity="0.5"><rect x="1041.22" y="74.56" width="62.81" height="66.99" fill="#f2bdb2"/></g></g><g id="Layer_5" data-name="Layer 5"><text transform="translate(1320.94 141.38)" font-size="100" font-family="Raleway-Regular, Raleway">MA<tspan x="155.3" y="0" letter-spacing="-0.02em">R</tspan><tspan x="218.3" y="0">YL</tspan><tspan x="341.7" y="0" xml:space="preserve" font-family="Raleway-Bold, Raleway" font-weight="700">   </tspan><tspan x="413.69" y="0">U</tspan><tspan font-size="60"><tspan x="93.02" y="72">JEWELLE</tspan><tspan x="364.22" y="72" letter-spacing="-0.02em">R</tspan><tspan x="402.02" y="72" letter-spacing="-0.03em">Y</tspan></tspan></text><g opacity="0.6"><ellipse cx="1700.58" cy="105.79" rx="59.5" ry="58" fill="#f2998a"/></g><polygon points="1690.13 81.86 1669.34 73.7 1677.83 52.55 1698.62 60.71 1690.13 81.86" fill="#f08eb9" opacity="0.36"/><polygon points="1701 150.65 1709.58 124.91 1733.64 132.74 1725.06 158.49 1701 150.65" fill="#f1969b" opacity="0.39"/><polygon points="1731.46 75.3 1705.97 83.16 1698.93 60.86 1724.43 52.99 1731.46 75.3" fill="#f1969b" opacity="0.39"/><polygon points="1730.01 140.17 1718.4 113.52 1743.51 102.83 1755.12 129.48 1730.01 140.17" fill="#f2997c" opacity="0.36"/><polygon points="1754.62 83.61 1744.96 105.1 1721.56 94.82 1731.22 73.34 1754.62 83.61" fill="#f08eb9" opacity="0.4"/><polygon points="1671.07 140.26 1642.74 121.31 1657.69 99.46 1686.03 118.42 1671.07 140.26" fill="#f1969b" opacity="0.39"/><polygon points="1669.27 139.23 1688.44 128.29 1700.58 149.08 1681.41 160.02 1669.27 139.23" fill="#f08eb9" opacity="0.36"/><polygon points="1647.61 80.4 1668.73 73.89 1675.97 96.81 1654.84 103.33 1647.61 80.4" fill="#f2997c" opacity="0.4"/><g opacity="0.71"><polygon points="1746.75 107.52 1702.34 151.42 1654.42 104.05 1698.83 60.15 1746.75 107.52" fill="#f6b5a6"/></g><g opacity="0.5"><rect x="1669.18" y="73.93" width="62.81" height="66.99" fill="#f29aa5"/></g></g></svg>
