<svg xmlns="http://www.w3.org/2000/svg" width="1890" height="193" viewBox="0 0 1890 193"><title>logomary3</title><g id="Layer_3" data-name="Layer 3"><text transform="translate(59.94 104.38)" font-size="100" font-family="Raleway-Regular, Raleway">MA<tspan x="155.3" y="0" letter-spacing="-0.02em">R</tspan><tspan x="218.3" y="0">YL</tspan><tspan x="341.7" y="0" xml:space="preserve" font-family="Raleway-Bold, Raleway" font-weight="700">   </tspan><tspan x="413.69" y="0">U</tspan><tspan font-size="60"><tspan x="93.02" y="72">JEWELLE</tspan><tspan x="364.22" y="72" letter-spacing="-0.02em">R</tspan><tspan x="402.02" y="72" letter-spacing="-0.03em">Y</tspan></tspan></text><g opacity="0.42"><ellipse cx="442.5" cy="69.06" rx="59.5" ry="56.94" fill="#f4aab4"/></g><polygon points="432.05 45.57 411.25 37.56 419.75 16.8 440.54 24.81 432.05 45.57" fill="#f7c1bd" opacity="0.4"/><polygon points="442.92 113.11 451.5 87.83 475.56 95.53 466.98 120.8 442.92 113.11" fill="#f7c1bd" opacity="0.4"/><polygon points="473.38 39.13 447.89 46.85 440.85 24.95 466.34 17.24 473.38 39.13" fill="#f7c1bd" opacity="0.4"/><polygon points="471.93 102.81 460.31 76.65 485.43 66.16 497.04 92.32 471.93 102.81" fill="#f7c1bd" opacity="0.4"/><polygon points="496.54 47.3 486.88 68.39 463.48 58.3 473.14 37.2 496.54 47.3" fill="#f7c1bd" opacity="0.4"/><polygon points="412.99 102.91 384.65 84.3 399.61 62.85 427.94 81.47 412.99 102.91" fill="#f7c1bd" opacity="0.4"/><polygon points="411.19 101.89 430.36 91.15 442.5 111.56 423.33 122.31 411.19 101.89" fill="#f7c1bd" opacity="0.41"/><polygon points="389.52 44.14 410.65 37.74 417.89 60.25 396.75 66.64 389.52 44.14" fill="#f7c1bd" opacity="0.4"/><g opacity="0.71"><polygon points="488.66 70.76 444.25 113.86 396.34 67.36 440.75 24.26 488.66 70.76" fill="#f4c2db"/></g><g opacity="0.7"><rect x="411.1" y="37.79" width="62.81" height="65.76" fill="#f7d5e0"/></g></g><g id="Layer_4" data-name="Layer 4"><text transform="translate(689.94 104.38)" font-size="100" font-family="Raleway-Regular, Raleway">MA<tspan x="155.3" y="0" letter-spacing="-0.02em">R</tspan><tspan x="218.3" y="0">YL</tspan><tspan x="341.7" y="0" xml:space="preserve" font-family="Raleway-Bold, Raleway" font-weight="700">   </tspan><tspan x="413.69" y="0">U</tspan><tspan font-size="60"><tspan x="93.02" y="72">JEWELLE</tspan><tspan x="364.22" y="72" letter-spacing="-0.02em">R</tspan><tspan x="402.02" y="72" letter-spacing="-0.03em">Y</tspan></tspan></text><g opacity="0.6"><ellipse cx="1070.62" cy="69.42" rx="59.5" ry="58" fill="#f3bfa3"/></g><polygon points="1062.17 45.49 1041.38 37.33 1049.88 16.19 1070.66 24.35 1062.17 45.49" fill="#efc6bc" opacity="0.36"/><polygon points="1073.04 114.29 1081.62 88.54 1105.68 96.38 1097.1 122.12 1073.04 114.29" fill="#f1a5ad" opacity="0.39"/><polygon points="1103.51 38.94 1078.01 46.8 1070.97 24.49 1096.47 16.63 1103.51 38.94" fill="#f1a5ad" opacity="0.39"/><polygon points="1102.05 103.8 1090.44 77.16 1115.56 66.46 1127.17 93.11 1102.05 103.8" fill="#f4b396" opacity="0.36"/><polygon points="1126.66 47.25 1117 68.74 1093.61 58.46 1103.27 36.97 1126.66 47.25" fill="#efc6bc" opacity="0.4"/><polygon points="1043.12 103.9 1014.78 84.94 1029.73 63.1 1058.07 82.06 1043.12 103.9" fill="#f1a5ad" opacity="0.39"/><polygon points="1041.31 102.86 1060.48 91.92 1072.62 112.72 1053.45 123.66 1041.31 102.86" fill="#efc6bc" opacity="0.36"/><polygon points="1019.65 44.04 1040.78 37.52 1048.01 60.44 1026.88 66.96 1019.65 44.04" fill="#f4b396" opacity="0.4"/><g opacity="0.71"><polygon points="1118.79 71.15 1074.38 115.05 1026.46 67.69 1070.87 23.79 1118.79 71.15" fill="#f6c2a2"/></g><g opacity="0.5"><rect x="1041.22" y="37.56" width="62.81" height="66.99" fill="#f2bdb2"/></g></g><g id="Layer_5" data-name="Layer 5"><text transform="translate(1320.94 104.38)" font-size="100" font-family="Raleway-Regular, Raleway">MA<tspan x="155.3" y="0" letter-spacing="-0.02em">R</tspan><tspan x="218.3" y="0">YL</tspan><tspan x="341.7" y="0" xml:space="preserve" font-family="Raleway-Bold, Raleway" font-weight="700">   </tspan><tspan x="413.69" y="0">U</tspan><tspan font-size="60"><tspan x="93.02" y="72">JEWELLE</tspan><tspan x="364.22" y="72" letter-spacing="-0.02em">R</tspan><tspan x="402.02" y="72" letter-spacing="-0.03em">Y</tspan></tspan></text><g opacity="0.6"><ellipse cx="1700.58" cy="68.79" rx="59.5" ry="58" fill="#f2998a"/></g><polygon points="1690.13 44.86 1669.34 36.7 1677.83 15.55 1698.62 23.71 1690.13 44.86" fill="#f08eb9" opacity="0.36"/><polygon points="1701 113.65 1709.58 87.91 1733.64 95.74 1725.06 121.49 1701 113.65" fill="#f1969b" opacity="0.39"/><polygon points="1731.46 38.3 1705.97 46.16 1698.93 23.86 1724.43 15.99 1731.46 38.3" fill="#f1969b" opacity="0.39"/><polygon points="1730.01 103.17 1718.4 76.52 1743.51 65.83 1755.12 92.48 1730.01 103.17" fill="#f2997c" opacity="0.36"/><polygon points="1754.62 46.62 1744.96 68.1 1721.56 57.82 1731.22 36.34 1754.62 46.62" fill="#f08eb9" opacity="0.4"/><polygon points="1671.07 103.27 1642.74 84.31 1657.69 62.46 1686.03 81.42 1671.07 103.27" fill="#f1969b" opacity="0.39"/><polygon points="1669.27 102.23 1688.44 91.29 1700.58 112.08 1681.41 123.02 1669.27 102.23" fill="#f08eb9" opacity="0.36"/><polygon points="1647.61 43.4 1668.73 36.89 1675.97 59.81 1654.84 66.33 1647.61 43.4" fill="#f2997c" opacity="0.4"/><g opacity="0.71"><polygon points="1746.75 70.52 1702.34 114.42 1654.42 67.05 1698.83 23.15 1746.75 70.52" fill="#f6b5a6"/></g><g opacity="0.5"><rect x="1669.18" y="36.93" width="62.81" height="66.99" fill="#f29aa5"/></g></g></svg>
