<svg xmlns="http://www.w3.org/2000/svg" width="1420" height="170" viewBox="0 0 1420 170"><title>loulogo</title><g id="Layer_3" data-name="Layer 3"><text transform="translate(-8.06 95.38)" font-size="100" font-family="Raleway-Regular, Raleway">MA<tspan x="155.3" y="0" letter-spacing="-0.02em">R</tspan><tspan x="218.3" y="0">YL</tspan><tspan x="341.7" y="0" xml:space="preserve" font-family="Raleway-Bold, Raleway" font-weight="700">   </tspan><tspan x="413.69" y="0">U</tspan><tspan font-size="60"><tspan x="93.02" y="72">JEWELLE</tspan><tspan x="364.22" y="72" letter-spacing="-0.02em">R</tspan><tspan x="402.02" y="72" letter-spacing="-0.03em">Y</tspan></tspan></text><g opacity="0.6"><ellipse cx="370.58" cy="58.9" rx="59.5" ry="58" fill="#f2998a"/></g><polygon points="361.13 34.86 340.34 26.7 348.83 5.55 369.62 13.71 361.13 34.86" fill="#f08eb9" opacity="0.36"/><polygon points="372 103.65 380.58 77.91 404.64 85.74 396.06 111.49 372 103.65" fill="#f1969b" opacity="0.39"/><polygon points="402.46 28.3 376.97 36.16 369.93 13.86 395.43 6 402.46 28.3" fill="#f1969b" opacity="0.39"/><polygon points="401.01 93.17 389.4 66.52 414.51 55.83 426.12 82.48 401.01 93.17" fill="#f2997c" opacity="0.36"/><polygon points="425.62 36.62 415.96 58.1 392.56 47.82 402.23 26.34 425.62 36.62" fill="#f08eb9" opacity="0.4"/><polygon points="342.07 93.27 313.74 74.31 328.69 52.46 357.03 71.42 342.07 93.27" fill="#f1969b" opacity="0.39"/><polygon points="340.27 92.23 359.44 81.29 371.58 102.08 352.41 113.02 340.27 92.23" fill="#f08eb9" opacity="0.36"/><polygon points="318.61 33.4 339.74 26.89 346.97 49.81 325.84 56.33 318.61 33.4" fill="#f2997c" opacity="0.4"/><g opacity="0.71"><polygon points="417.75 60.52 373.34 104.42 325.42 57.05 369.83 13.15 417.75 60.52" fill="#f6b5a6"/></g><g opacity="0.5"><rect x="340.18" y="26.93" width="62.81" height="66.99" fill="#f29aa5"/></g><text transform="translate(937.94 95.38)" font-size="100" font-family="Raleway-Regular, Raleway">MA<tspan x="155.3" y="0" letter-spacing="-0.02em">R</tspan><tspan x="218.3" y="0">YL</tspan><tspan x="341.7" y="0" xml:space="preserve" font-family="Raleway-Bold, Raleway" font-weight="700">   </tspan><tspan x="413.69" y="0">U</tspan><tspan font-size="60"><tspan x="93.02" y="72">JEWELLE</tspan><tspan x="364.22" y="72" letter-spacing="-0.02em">R</tspan><tspan x="402.02" y="72" letter-spacing="-0.03em">Y</tspan></tspan></text></g><g id="Layer_4" data-name="Layer 4"><g opacity="0.6"><ellipse cx="843.62" cy="58.9" rx="59.5" ry="58" fill="#f3bfa3"/></g><polygon points="834.17 34.49 813.38 26.33 821.88 5.19 842.66 13.35 834.17 34.49" fill="#efc6bc" opacity="0.36"/><polygon points="845.04 103.29 853.62 77.54 877.68 85.38 869.1 111.12 845.04 103.29" fill="#f1a5ad" opacity="0.39"/><polygon points="875.51 27.94 850.01 35.8 842.97 13.49 868.47 5.63 875.51 27.94" fill="#f1a5ad" opacity="0.39"/><polygon points="898.59 36.04 889.2 57.65 865.68 47.67 875.07 26.06 898.59 36.04" fill="#efc6bc" opacity="0.4"/><polygon points="815.12 92.9 786.78 73.94 801.73 52.1 830.07 71.06 815.12 92.9" fill="#f1a5ad" opacity="0.39"/><polygon points="813.31 91.86 832.48 80.92 844.62 101.72 825.46 112.66 813.31 91.86" fill="#efc6bc" opacity="0.36"/><polygon points="791.65 33.04 812.78 26.52 820.01 49.44 798.88 55.96 791.65 33.04" fill="#f4b396" opacity="0.4"/><g opacity="0.71"><polygon points="890.79 60.15 846.38 104.05 798.46 56.69 842.87 12.79 890.79 60.15" fill="#f6c2a2"/></g><g opacity="0.5"><rect x="813.22" y="26.56" width="62.81" height="66.99" fill="#f2bdb2"/></g><text transform="translate(464.94 95.38)" font-size="100" font-family="Raleway-Regular, Raleway">MA<tspan x="155.3" y="0" letter-spacing="-0.02em">R</tspan><tspan x="218.3" y="0">YL</tspan><tspan x="341.7" y="0" xml:space="preserve" font-family="Raleway-Bold, Raleway" font-weight="700">   </tspan><tspan x="413.69" y="0">U</tspan><tspan font-size="60"><tspan x="93.02" y="72">JEWELLE</tspan><tspan x="364.22" y="72" letter-spacing="-0.02em">R</tspan><tspan x="402.02" y="72" letter-spacing="-0.03em">Y</tspan></tspan></text></g><g id="Layer_5" data-name="Layer 5"><g opacity="0.42"><ellipse cx="1315.5" cy="58.9" rx="59.5" ry="58" fill="#f4aab4"/></g><polygon points="1306.05 34.57 1285.26 26.56 1293.75 5.8 1314.54 13.81 1306.05 34.57" fill="#f7c1bd" opacity="0.4"/><polygon points="1316.92 102.11 1325.5 76.83 1349.56 84.53 1340.97 109.8 1316.92 102.11" fill="#f7c1bd" opacity="0.4"/><polygon points="1347.38 28.13 1321.89 35.85 1314.85 13.95 1340.34 6.24 1347.38 28.13" fill="#f7c1bd" opacity="0.4"/><polygon points="1346 91.84 1334.28 65.73 1359.35 55.13 1371.08 81.24 1346 91.84" fill="#f7c1bd" opacity="0.4"/><polygon points="1370.54 36.3 1360.88 57.39 1337.48 47.3 1347.14 26.2 1370.54 36.3" fill="#f7c1bd" opacity="0.4"/><polygon points="1286.99 91.91 1258.65 73.3 1273.61 51.85 1301.94 70.47 1286.99 91.91" fill="#f7c1bd" opacity="0.4"/><polygon points="1285.19 90.89 1304.36 80.15 1316.5 100.56 1297.33 111.31 1285.19 90.89" fill="#f7c1bd" opacity="0.41"/><polygon points="1263.52 33.14 1284.65 26.75 1291.89 49.25 1270.76 55.65 1263.52 33.14" fill="#f7c1bd" opacity="0.4"/><g opacity="0.6"><polygon points="1362.66 59.76 1318.25 102.86 1270.34 56.36 1314.75 13.26 1362.66 59.76" fill="#f4c2db"/></g><g opacity="0.5"><rect x="1285.1" y="26.79" width="62.81" height="65.76" fill="#f7d5e0"/></g></g></svg>
