<svg xmlns="http://www.w3.org/2000/svg" width="1943" height="193" viewBox="0 0 1943 193"><title>marielogo</title><g id="Layer_3" data-name="Layer 3"><text transform="translate(61.94 98.38)" font-size="100" font-family="Raleway-Regular, Raleway">MA<tspan x="155.3" y="0" letter-spacing="-0.02em">R</tspan><tspan x="218.3" y="0">YL</tspan><tspan x="341.7" y="0" xml:space="preserve" font-family="Raleway-Bold, Raleway" font-weight="700">   </tspan><tspan x="413.69" y="0">U</tspan><tspan font-size="60"><tspan x="93.02" y="72">JEWELLE</tspan><tspan x="364.22" y="72" letter-spacing="-0.02em">R</tspan><tspan x="402.02" y="72" letter-spacing="-0.03em">Y</tspan></tspan></text><g opacity="0.6"><ellipse cx="440.58" cy="61.79" rx="59.5" ry="58" fill="#f2998a"/></g><polygon points="431.13 37.86 410.34 29.7 418.83 8.55 439.62 16.71 431.13 37.86" fill="#f08eb9" opacity="0.36"/><polygon points="442 106.65 450.58 80.91 474.64 88.74 466.06 114.49 442 106.65" fill="#f1969b" opacity="0.39"/><polygon points="472.46 31.3 446.97 39.16 439.93 16.86 465.43 8.99 472.46 31.3" fill="#f1969b" opacity="0.39"/><polygon points="471.01 96.17 459.4 69.52 484.51 58.83 496.12 85.48 471.01 96.17" fill="#f2997c" opacity="0.36"/><polygon points="495.62 39.62 485.96 61.1 462.56 50.82 472.23 29.34 495.62 39.62" fill="#f08eb9" opacity="0.4"/><polygon points="412.07 96.27 383.74 77.31 398.69 55.46 427.03 74.42 412.07 96.27" fill="#f1969b" opacity="0.39"/><polygon points="410.27 95.23 429.44 84.29 441.58 105.08 422.41 116.02 410.27 95.23" fill="#f08eb9" opacity="0.36"/><polygon points="388.61 36.4 409.74 29.89 416.97 52.81 395.84 59.33 388.61 36.4" fill="#f2997c" opacity="0.4"/><g opacity="0.71"><polygon points="487.75 63.52 443.34 107.42 395.42 60.05 439.83 16.15 487.75 63.52" fill="#f6b5a6"/></g><g opacity="0.5"><rect x="410.18" y="29.93" width="62.81" height="66.99" fill="#f29aa5"/></g><text transform="translate(1357.94 98.38)" font-size="100" font-family="Raleway-Regular, Raleway">MA<tspan x="155.3" y="0" letter-spacing="-0.02em">R</tspan><tspan x="218.3" y="0">YL</tspan><tspan x="341.7" y="0" xml:space="preserve" font-family="Raleway-Bold, Raleway" font-weight="700">   </tspan><tspan x="413.69" y="0">U</tspan><tspan font-size="60"><tspan x="93.02" y="72">JEWELLE</tspan><tspan x="364.22" y="72" letter-spacing="-0.02em">R</tspan><tspan x="402.02" y="72" letter-spacing="-0.03em">Y</tspan></tspan></text></g><g id="Layer_4" data-name="Layer 4"><g opacity="0.6"><ellipse cx="1088.62" cy="62.42" rx="59.5" ry="58" fill="#f3bfa3"/></g><polygon points="1079.17 37.49 1058.38 29.33 1066.88 8.19 1087.66 16.35 1079.17 37.49" fill="#efc6bc" opacity="0.36"/><polygon points="1090.04 106.29 1098.62 80.54 1122.68 88.38 1114.1 114.12 1090.04 106.29" fill="#f1a5ad" opacity="0.39"/><polygon points="1120.51 30.94 1095.01 38.8 1087.97 16.49 1113.47 8.63 1120.51 30.94" fill="#f1a5ad" opacity="0.39"/><polygon points="1143.59 39.04 1134.2 60.65 1110.68 50.67 1120.07 29.06 1143.59 39.04" fill="#efc6bc" opacity="0.4"/><polygon points="1060.12 95.9 1031.78 76.94 1046.73 55.1 1075.07 74.06 1060.12 95.9" fill="#f1a5ad" opacity="0.39"/><polygon points="1058.31 94.86 1077.48 83.92 1089.62 104.72 1070.45 115.66 1058.31 94.86" fill="#efc6bc" opacity="0.36"/><polygon points="1036.65 36.04 1057.78 29.52 1065.01 52.44 1043.88 58.96 1036.65 36.04" fill="#f4b396" opacity="0.4"/><g opacity="0.71"><polygon points="1135.79 63.15 1091.38 107.05 1043.46 59.69 1087.87 15.79 1135.79 63.15" fill="#f6c2a2"/></g><g opacity="0.5"><rect x="1058.22" y="29.56" width="62.81" height="66.99" fill="#f2bdb2"/></g><text transform="translate(709.94 98.38)" font-size="100" font-family="Raleway-Regular, Raleway">MA<tspan x="155.3" y="0" letter-spacing="-0.02em">R</tspan><tspan x="218.3" y="0">YL</tspan><tspan x="341.7" y="0" xml:space="preserve" font-family="Raleway-Bold, Raleway" font-weight="700">   </tspan><tspan x="413.69" y="0">U</tspan><tspan font-size="60"><tspan x="93.02" y="72">JEWELLE</tspan><tspan x="364.22" y="72" letter-spacing="-0.02em">R</tspan><tspan x="402.02" y="72" letter-spacing="-0.03em">Y</tspan></tspan></text></g><g id="Layer_5" data-name="Layer 5"><g opacity="0.42"><ellipse cx="1735.5" cy="61.06" rx="59.5" ry="58" fill="#f4aab4"/></g><polygon points="1726.05 37.57 1705.26 29.56 1713.75 8.8 1734.54 16.81 1726.05 37.57" fill="#f7c1bd" opacity="0.4"/><polygon points="1736.92 105.11 1745.5 79.83 1769.56 87.53 1760.97 112.8 1736.92 105.11" fill="#f7c1bd" opacity="0.4"/><polygon points="1767.38 31.13 1741.89 38.85 1734.85 16.95 1760.34 9.24 1767.38 31.13" fill="#f7c1bd" opacity="0.4"/><polygon points="1766 94.84 1754.28 68.73 1779.35 58.13 1791.08 84.24 1766 94.84" fill="#f7c1bd" opacity="0.4"/><polygon points="1790.54 39.3 1780.88 60.39 1757.48 50.3 1767.14 29.2 1790.54 39.3" fill="#f7c1bd" opacity="0.4"/><polygon points="1706.99 94.91 1678.65 76.3 1693.61 54.85 1721.94 73.47 1706.99 94.91" fill="#f7c1bd" opacity="0.4"/><polygon points="1705.19 93.89 1724.36 83.15 1736.5 103.56 1717.33 114.31 1705.19 93.89" fill="#f7c1bd" opacity="0.41"/><polygon points="1683.52 36.14 1704.65 29.75 1711.89 52.25 1690.76 58.65 1683.52 36.14" fill="#f7c1bd" opacity="0.4"/><g opacity="0.6"><polygon points="1782.66 62.76 1738.25 105.86 1690.34 59.36 1734.75 16.26 1782.66 62.76" fill="#f4c2db"/></g><g opacity="0.5"><rect x="1705.1" y="29.79" width="62.81" height="65.76" fill="#f7d5e0"/></g></g></svg>
