<svg xmlns="http://www.w3.org/2000/svg" width="1800" height="200" viewBox="0 0 1800 200"><title>storlogo]</title><g id="Layer_6" data-name="Layer 6"><text transform="translate(54.94 98.38)" font-size="100" font-family="Raleway-Regular, Raleway">MA<tspan x="155.3" y="0" letter-spacing="-0.02em">R</tspan><tspan x="218.3" y="0">YL</tspan><tspan x="341.7" y="0" xml:space="preserve" font-family="Raleway-Bold, Raleway" font-weight="700">   </tspan><tspan x="413.69" y="0">U</tspan><tspan font-size="60"><tspan x="93.02" y="72">JEWELLE</tspan><tspan x="364.22" y="72" letter-spacing="-0.02em">R</tspan><tspan x="402.02" y="72" letter-spacing="-0.03em">Y</tspan></tspan></text><g opacity="0.42"><ellipse cx="437.5" cy="63.06" rx="59.5" ry="56.94" fill="#f4aab4"/></g><polygon points="427.05 39.57 406.25 31.56 414.75 10.8 435.54 18.81 427.05 39.57" fill="#f7c1bd" opacity="0.4"/><polygon points="437.92 107.11 446.5 81.83 470.56 89.53 461.98 114.8 437.92 107.11" fill="#f7c1bd" opacity="0.4"/><polygon points="468.38 33.13 442.89 40.85 435.85 18.95 461.34 11.24 468.38 33.13" fill="#f7c1bd" opacity="0.4"/><polygon points="466.93 96.81 455.31 70.65 480.43 60.16 492.04 86.32 466.93 96.81" fill="#f7c1bd" opacity="0.4"/><polygon points="491.54 41.3 481.88 62.39 458.48 52.3 468.14 31.2 491.54 41.3" fill="#f7c1bd" opacity="0.4"/><polygon points="407.99 96.91 379.65 78.3 394.61 56.85 422.94 75.47 407.99 96.91" fill="#f7c1bd" opacity="0.4"/><polygon points="406.19 95.89 425.36 85.15 437.5 105.56 418.33 116.31 406.19 95.89" fill="#f7c1bd" opacity="0.41"/><polygon points="384.52 38.14 405.65 31.75 412.89 54.25 391.75 60.65 384.52 38.14" fill="#f7c1bd" opacity="0.4"/><g opacity="0.71"><polygon points="483.66 64.76 439.25 107.86 391.34 61.36 435.75 18.26 483.66 64.76" fill="#f4c2db"/></g><g opacity="0.7"><rect x="406.1" y="31.79" width="62.81" height="65.76" fill="#f7d5e0"/></g></g><g id="Layer_7" data-name="Layer 7"><text transform="translate(654.94 98.38)" font-size="100" font-family="Raleway-Regular, Raleway">MA<tspan x="155.3" y="0" letter-spacing="-0.02em">R</tspan><tspan x="218.3" y="0">YL</tspan><tspan x="341.7" y="0" xml:space="preserve" font-family="Raleway-Bold, Raleway" font-weight="700">   </tspan><tspan x="413.69" y="0">U</tspan><tspan font-size="60"><tspan x="93.02" y="72">JEWELLE</tspan><tspan x="364.22" y="72" letter-spacing="-0.02em">R</tspan><tspan x="402.02" y="72" letter-spacing="-0.03em">Y</tspan></tspan></text><g opacity="0.6"><ellipse cx="1035.62" cy="63.42" rx="59.5" ry="58" fill="#f3bfa3"/></g><polygon points="1027.17 39.49 1006.38 31.33 1014.88 10.19 1035.66 18.35 1027.17 39.49" fill="#efc6bc" opacity="0.36"/><polygon points="1038.04 108.29 1046.62 82.54 1070.68 90.38 1062.1 116.12 1038.04 108.29" fill="#f1a5ad" opacity="0.39"/><polygon points="1068.51 32.94 1043.01 40.8 1035.97 18.49 1061.47 10.63 1068.51 32.94" fill="#f1a5ad" opacity="0.39"/><polygon points="1067.05 97.8 1055.44 71.16 1080.56 60.46 1092.17 87.11 1067.05 97.8" fill="#f4b396" opacity="0.36"/><polygon points="1091.66 41.25 1082 62.74 1058.61 52.46 1068.27 30.97 1091.66 41.25" fill="#efc6bc" opacity="0.4"/><polygon points="1008.12 97.9 979.78 78.94 994.73 57.1 1023.07 76.06 1008.12 97.9" fill="#f1a5ad" opacity="0.39"/><polygon points="1006.31 96.86 1025.48 85.92 1037.62 106.72 1018.46 117.66 1006.31 96.86" fill="#efc6bc" opacity="0.36"/><polygon points="984.65 38.04 1005.78 31.52 1013.01 54.44 991.88 60.96 984.65 38.04" fill="#f4b396" opacity="0.4"/><g opacity="0.71"><polygon points="1083.79 65.15 1039.38 109.05 991.46 61.69 1035.87 17.79 1083.79 65.15" fill="#f6c2a2"/></g><g opacity="0.5"><rect x="1006.22" y="31.56" width="62.81" height="66.99" fill="#f2bdb2"/></g></g><g id="Layer_8" data-name="Layer 8"><text transform="translate(1254.94 98.38)" font-size="100" font-family="Raleway-Regular, Raleway">MA<tspan x="155.3" y="0" letter-spacing="-0.02em">R</tspan><tspan x="218.3" y="0">YL</tspan><tspan x="341.7" y="0" xml:space="preserve" font-family="Raleway-Bold, Raleway" font-weight="700">   </tspan><tspan x="413.69" y="0">U</tspan><tspan font-size="60"><tspan x="93.02" y="72">JEWELLE</tspan><tspan x="364.22" y="72" letter-spacing="-0.02em">R</tspan><tspan x="402.02" y="72" letter-spacing="-0.03em">Y</tspan></tspan></text><g opacity="0.6"><ellipse cx="1634.58" cy="62.79" rx="59.5" ry="58" fill="#f2998a"/></g><polygon points="1624.13 38.86 1603.34 30.7 1611.83 9.55 1632.62 17.71 1624.13 38.86" fill="#f08eb9" opacity="0.36"/><polygon points="1635 107.65 1643.58 81.91 1667.64 89.74 1659.06 115.49 1635 107.65" fill="#f1969b" opacity="0.39"/><polygon points="1665.46 32.3 1639.97 40.16 1632.93 17.86 1658.43 9.99 1665.46 32.3" fill="#f1969b" opacity="0.39"/><polygon points="1664.01 97.17 1652.4 70.52 1677.51 59.83 1689.12 86.48 1664.01 97.17" fill="#f2997c" opacity="0.36"/><polygon points="1688.62 40.62 1678.96 62.1 1655.56 51.82 1665.22 30.34 1688.62 40.62" fill="#f08eb9" opacity="0.4"/><polygon points="1605.07 97.27 1576.74 78.31 1591.69 56.46 1620.03 75.42 1605.07 97.27" fill="#f1969b" opacity="0.39"/><polygon points="1603.27 96.23 1622.44 85.29 1634.58 106.08 1615.41 117.02 1603.27 96.23" fill="#f08eb9" opacity="0.36"/><polygon points="1581.61 37.4 1602.73 30.89 1609.97 53.81 1588.84 60.33 1581.61 37.4" fill="#f2997c" opacity="0.4"/><g opacity="0.71"><polygon points="1680.75 64.52 1636.34 108.42 1588.42 61.05 1632.83 17.15 1680.75 64.52" fill="#f6b5a6"/></g><g opacity="0.5"><rect x="1603.18" y="30.93" width="62.81" height="66.99" fill="#f29aa5"/></g></g></svg>
